<svg width="24" height="24" viewBox="0 0 24 24" fill="none" xmlns="http://www.w3.org/2000/svg">
<path d="M19.1159 8.02384C19.0593 8.08897 18.9886 8.13963 18.9108 8.16858C18.833 8.20477 18.7481 8.21924 18.6632 8.21924H2.64268C2.07683 8.21924 1.78683 7.49553 2.18293 7.0613L4.81411 4.20264C4.8707 4.13751 4.94143 4.08685 5.0263 4.05066C5.10411 4.01448 5.18899 4 5.27386 4H21.358C21.931 4 22.2139 4.73095 21.8107 5.16518L19.1159 8.02384ZM19.1159 20.8046C18.9956 20.9276 18.833 21 18.6632 21H2.64268C2.07683 21 1.78683 20.2908 2.18293 19.871L4.81411 17.0775C4.8707 17.0123 4.9485 16.9617 5.0263 16.9327C5.10411 16.8966 5.18899 16.8821 5.27386 16.8821H21.358C21.931 16.8821 22.2139 17.5986 21.8107 18.0183L19.1159 20.8046ZM19.1159 10.6364C18.9956 10.5134 18.833 10.441 18.6632 10.441H2.64268C2.07683 10.441 1.78683 11.1503 2.18293 11.57L4.81411 14.3636C4.8707 14.4287 4.9485 14.4794 5.0263 14.5083C5.10411 14.5445 5.18899 14.559 5.27386 14.559H21.358C21.931 14.559 22.2139 13.8425 21.8107 13.4227L19.1159 10.6364Z" fill="url(#paint0_linear_39_68)"/>
<defs>
<linearGradient id="paint0_linear_39_68" x1="3.22296" y1="21.2122" x2="21.1144" y2="4.18818" gradientUnits="userSpaceOnUse">
<stop stop-color="#CF41E8"/>
<stop offset="1" stop-color="#10F2B0"/>
</linearGradient>
</defs>
</svg>
